<svg width="1079" height="840" viewBox="0 0 1079 840" fill="none" xmlns="http://www.w3.org/2000/svg">
<g clip-path="url(#clip0)">
<path opacity="0.1" d="M392.455 833.291C609.202 833.291 784.91 827.029 784.91 819.304C784.91 811.579 609.202 805.317 392.455 805.317C175.708 805.317 0 811.579 0 819.304C0 827.029 175.708 833.291 392.455 833.291Z" fill="#F9A826"/>
<path opacity="0.1" d="M289.28 25.3935C314.283 3.11326 353.529 -1.42759 389.252 0.347227C501.457 5.92188 602.744 60.0926 690.356 121.366C722.073 143.547 753.301 167.453 773.889 197.999C815.799 260.181 803.367 346.324 745.09 397.551C725.262 414.98 701.226 428.341 676.55 440.185C632.675 461.244 585.334 478.15 535.537 482.962C500.026 486.393 464.078 483.604 428.775 478.816C330.14 465.439 233.323 435.86 152.176 385.253C116.586 363.057 83.0396 335.462 68.3698 299.554C53.7 263.647 63.0885 218.145 99.4301 196.891C114.461 188.1 132.432 184.13 150.026 180.402C175.924 174.915 202.237 169.506 225.608 158.351C249.746 146.829 278.329 124.547 273.55 99.044C268.422 71.68 264.307 47.6478 289.28 25.3935Z" fill="#F9A826"/>
<path opacity="0.1" d="M973.162 839.088C1031.13 839.088 1078.12 834.93 1078.12 829.801C1078.12 824.673 1031.13 820.515 973.162 820.515C915.193 820.515 868.2 824.673 868.2 829.801C868.2 834.93 915.193 839.088 973.162 839.088Z" fill="#F9A826"/>
<path d="M547.425 316.016C545.716 312.708 536.682 292.151 536.682 292.151L521.545 252.927C521.545 252.927 510.802 236.387 510.802 233.315C510.802 230.244 491.27 217.957 491.27 217.957C491.27 217.957 475.4 213.231 474.179 212.758C472.958 212.286 454.159 206.067 454.159 206.067C454.159 206.067 446.756 196.332 445.701 198.874L445.7 198.881C445.662 198.816 445.622 198.761 445.584 198.695C444.072 195.868 443.114 192.779 442.762 189.593C442.722 189.31 442.687 189.011 442.651 188.716C447.527 185.411 451.524 180.967 454.295 175.769C457.066 170.571 458.527 164.775 458.553 158.885C458.55 157.334 458.446 155.785 458.241 154.248C458.375 154.164 458.516 154.09 458.661 154.027C458.965 153.895 458.888 153.788 458.664 153.676C458.741 153.635 458.817 153.593 458.894 153.56C459.298 153.385 459.029 153.252 458.637 153.094L458.661 153.082C459.212 152.842 458.515 152.684 457.956 152.431C457.926 152.267 457.897 152.103 457.865 151.94C457.989 151.629 458.064 151.301 458.089 150.967C458.139 150.992 458.184 151.018 458.237 151.041C458.373 150.432 458.369 149.8 458.227 149.193C458.192 149.316 458.149 149.437 458.1 149.556C458.135 149.005 458.021 148.455 457.771 147.963C457.521 147.471 457.144 147.055 456.678 146.759C456.65 146.734 456.619 146.708 456.591 146.683L457.627 136.083C472.894 135.361 475.573 109.386 472.091 107.943C468.609 106.5 472.091 103.373 472.091 97.12C472.091 90.8667 460.573 83.8919 460.573 83.8919C460.573 83.8919 455.751 86.2971 448.252 74.2715C440.752 62.2459 413.163 60.3218 411.288 63.4485C409.413 66.5751 397.091 70.6638 381.02 75.2335C364.949 79.8032 367.895 98.8036 370.574 102.892C372.78 106.273 374.072 110.167 374.324 114.196C374.324 116.601 379.413 126.703 379.413 126.703C377.808 130.203 381.893 149.379 383.103 154.829C383.083 154.996 383.063 155.163 383.047 155.331C383.036 155.348 383.023 155.362 383.013 155.378C382.955 155.467 382.903 155.558 382.857 155.653C382.597 156.217 382.511 156.847 382.61 157.46C382.521 158.131 382.615 158.813 382.881 159.436C382.973 164.57 384.161 169.626 386.365 174.264C388.569 178.902 391.74 183.015 395.663 186.329C395.682 186.657 395.7 186.987 395.718 187.324C395.943 191.776 396.07 197.041 395.836 202.078C395.824 202.336 395.804 202.588 395.79 202.845C394.904 203.024 394.073 203.409 393.363 203.969C392.654 204.528 392.085 205.247 391.705 206.067C390.191 208.978 381.401 213.467 381.401 213.467C381.401 213.467 366.02 214.176 364.555 217.012C363.09 219.847 340.872 229.298 340.872 229.298C340.872 229.298 329.153 236.151 330.862 243.948C331.755 248.023 329.248 254.352 326.651 259.471C321.218 257.41 315.56 256 309.796 255.268L322.243 267.176C321.982 267.583 321.828 267.813 321.828 267.813L314.748 292.859C314.748 292.859 312.306 301.602 309.865 303.729C307.423 305.855 312.062 325.231 312.062 325.231C312.062 325.231 309.377 338.935 307.179 342.48C304.982 346.024 310.597 354.767 310.597 354.767L321.828 380.286L351.615 387.847C351.615 387.847 353.6 388.267 356.807 388.954C356.707 389.564 356.603 390.171 356.498 390.777C355.062 398.905 353.177 406.381 350.882 408.404C345.267 413.366 345.511 435.577 345.511 435.577L345.755 467.003C345.755 467.003 347.708 505.754 346.732 507.172C346.115 508.066 347.352 509.526 350.616 510.837C350.523 511.42 350.431 512.012 350.345 512.616C349.427 519.043 349.017 526.377 351.127 529.619C352.043 531.372 352.544 533.312 352.591 535.29C352.591 538.361 357.23 544.741 357.23 544.741C357.23 544.741 353.568 570.969 359.672 579.948C365.776 588.927 370.903 605.231 367.973 609.011C367.973 609.011 362.846 620.117 365.287 625.079C367.729 630.041 365.287 632.876 362.113 634.058C358.939 635.239 359.213 644.927 359.213 644.927L365.043 691.003C365.043 691.003 368.217 700.454 365.532 703.762C362.846 707.07 362.846 723.61 366.996 729.281C371.147 734.952 361.137 745.348 361.137 745.348C361.137 745.348 355.033 754.091 364.799 756.927C364.799 756.927 366.752 757.399 363.09 761.18C359.428 764.96 358.695 769.686 361.137 771.34C361.643 771.644 362.173 771.907 362.72 772.127C362.63 772.687 362.532 773.267 362.416 773.883C361.479 778.816 359.711 785.243 356.498 788.353C350.271 794.733 344.897 801.894 340.511 809.656C337.161 816.008 335.696 821.953 339.407 824.741C348.197 831.357 359.428 833.483 366.02 830.884C372.612 828.285 381.89 820.251 381.89 820.251L384.087 811.036C384.087 811.036 382.622 805.365 389.947 803.239C397.271 801.112 404.108 793.551 404.108 793.551V781.302C405.881 780.289 407.593 779.171 409.235 777.956C409.235 777.956 412.653 765.906 409.235 761.889C405.817 757.872 404.596 756.454 408.991 753.855C413.385 751.256 413.981 745.585 410.758 740.623C407.526 735.661 402.398 728.336 406.793 717.939C411.188 707.543 412.799 675.644 412.799 675.644C412.799 675.644 410.748 653.906 412.799 648.944C414.85 643.982 410.455 634.058 410.455 634.058C410.455 634.058 411.92 621.771 414.606 616.1C417.292 610.429 419.489 580.421 419.489 580.421C419.489 580.421 424.372 567.661 424.372 559.391C424.372 551.121 416.803 531.273 428.034 526.075C428.034 526.075 432.917 530.328 430.964 547.34C430.964 547.34 436.58 567.189 436.58 573.332C436.58 579.475 440.73 601.686 440.73 601.686C440.73 601.686 441.219 608.775 442.928 611.374C444.637 613.973 442.928 621.062 442.928 621.062C442.928 621.062 449.276 626.969 447.567 630.75C445.857 634.53 447.86 643.056 447.86 643.056L446.346 695.965C446.346 695.965 441.951 718.648 452.205 732.353C452.205 732.353 448.543 752.437 446.346 753.855C444.148 755.273 454.403 767.56 454.403 767.56C454.403 767.56 451.561 775.519 457.333 775.91V789.062C459.337 792.603 462.086 795.666 465.39 798.041C470.761 801.821 468.564 814.817 468.564 814.817C468.564 814.817 475.4 831.357 493.467 827.813C511.534 824.269 513.976 822.614 512.999 816.707C512.648 814.552 511.866 810.706 510.743 806.339C508.8 798.75 505.821 789.591 502.257 785.073C496.641 777.956 492.002 763.07 492.002 763.07C492.002 763.07 489.805 758.108 492.002 756.454C494.2 754.8 493.223 751.729 493.223 751.729C493.223 751.729 495.362 745.585 493.438 741.805C491.514 738.024 497.129 730.226 497.129 730.226L495.42 693.838L497.129 640.91C497.129 640.91 489.561 632.168 492.735 626.969C495.909 621.771 489.072 614.446 489.072 614.446C489.072 614.446 488.34 614.21 490.293 608.302C491.462 604.821 491.288 601.029 489.805 597.67C489.805 597.67 485.654 583.02 492.979 571.914C492.979 571.914 496.153 557.265 497.129 549.703C497.803 544.448 502.022 524.818 504.532 513.334C504.674 512.685 504.81 512.064 504.94 511.47C508.556 511.668 511.29 511.898 511.29 511.898C511.29 511.898 505.675 472.91 511.29 464.877C516.906 456.843 506.895 395.408 506.895 395.408C506.895 395.408 504.503 384.671 503.028 373.717C502.944 373.093 502.867 372.469 502.789 371.846C507.323 371.483 511.873 371.382 516.417 371.543C528.137 372.252 539.612 367.763 539.856 363.273C540.1 358.784 546.448 341.062 547.425 337.045C548.401 333.029 549.134 319.324 547.425 316.016Z" fill="url(#paint0_linear)"/>
<path d="M404.962 771.84V793.719C404.962 793.719 398.375 801.247 391.317 803.364C384.259 805.482 385.671 811.128 385.671 811.128L383.554 820.303C383.554 820.303 374.614 828.301 368.262 830.889C361.91 833.477 351.088 831.36 342.619 824.773C339.043 821.997 340.455 816.078 343.682 809.754C347.888 802.053 353.065 794.924 359.087 788.543C362.183 785.447 363.886 779.048 364.79 774.136C365.458 770.457 365.674 767.605 365.674 767.605L404.962 771.84Z" fill="#4C495A"/>
<path opacity="0.1" d="M404.962 788.167V793.719C404.962 793.719 398.375 801.247 391.317 803.364C384.259 805.482 385.671 811.128 385.671 811.128L383.554 820.303C383.554 820.303 374.614 828.301 368.262 830.889C361.91 833.477 351.088 831.36 342.619 824.773C339.043 821.997 340.455 816.078 343.682 809.754C343.532 816.397 345.499 823.86 355.088 823.596C365.437 823.268 375.411 819.641 383.554 813.245C383.554 813.245 383.318 797.718 394.14 794.189C398.096 792.884 401.768 790.84 404.962 788.167Z" fill="black"/>
<path d="M491.066 827.831C473.657 831.36 467.07 814.892 467.07 814.892C467.07 814.892 469.187 801.953 464.011 798.189C460.811 795.802 458.163 792.752 456.248 789.249V767.605L477.421 752.549L488.883 762.693L489.654 763.371C489.654 763.371 494.124 778.192 499.535 785.278C502.97 789.776 505.84 798.894 507.713 806.451C508.795 810.798 509.548 814.628 509.886 816.774C510.827 822.655 508.475 824.302 491.066 827.831Z" fill="#4C495A"/>
<path opacity="0.1" d="M491.066 827.831C473.657 831.36 467.07 814.892 467.07 814.892C467.07 814.892 469.187 801.953 464.011 798.189C460.811 795.802 458.163 792.752 456.248 789.249V780.864C459.608 784.412 465.941 791.281 467.305 794.189C469.187 798.189 469.422 812.775 478.127 815.362C486.831 817.95 503.77 820.303 505.181 813.716C505.768 811.212 506.617 808.777 507.713 806.451C508.795 810.798 509.548 814.628 509.886 816.774C510.827 822.655 508.475 824.302 491.066 827.831Z" fill="black"/>
<path opacity="0.1" d="M365.674 767.605L404.962 771.84V783.405C400.53 786.031 394.178 788.816 390.611 785.955C385.342 781.739 369.674 776.385 364.79 774.136C365.458 770.457 365.674 767.605 365.674 767.605Z" fill="black"/>
<path opacity="0.1" d="M489.654 765.253C484.244 763.371 474.598 771.605 461.894 776.78C460.128 777.612 458.2 778.043 456.248 778.041V767.605L477.421 752.549L488.883 762.693C489.06 763.568 489.318 764.425 489.654 765.253Z" fill="black"/>
<path d="M503.535 506.235C503.535 506.235 502.791 509.698 501.728 514.723C499.309 526.157 495.244 545.702 494.595 550.934C493.654 558.462 490.595 573.048 490.595 573.048C483.538 584.105 487.537 598.691 487.537 598.691C488.968 602.047 489.135 605.808 488.008 609.278C486.126 615.159 486.831 615.394 486.831 615.394C486.831 615.394 493.419 622.687 490.36 627.863C487.302 633.038 494.595 641.743 494.595 641.743L492.948 694.44L494.595 730.67C494.595 730.67 489.184 738.433 491.038 742.197C492.892 745.962 490.831 752.078 490.831 752.078C490.831 752.078 491.772 755.137 489.654 756.783C487.537 758.43 489.654 763.371 489.654 763.371C484.244 761.489 474.598 769.723 461.894 774.898C449.19 780.074 453.425 767.84 453.425 767.84C453.425 767.84 443.544 755.607 445.661 754.196C447.779 752.784 451.308 732.787 451.308 732.787C441.427 719.142 445.661 696.558 445.661 696.558L447.12 643.879C447.12 643.879 445.191 635.391 446.838 631.627C448.484 627.863 442.368 621.981 442.368 621.981C442.368 621.981 444.015 614.924 442.368 612.336C440.721 609.748 440.251 602.69 440.251 602.69C440.251 602.69 436.251 580.576 436.251 574.46C436.251 568.343 430.84 548.581 430.84 548.581C432.722 531.643 428.017 527.408 428.017 527.408C417.195 532.584 424.488 552.345 424.488 560.579C424.488 568.813 419.783 581.517 419.783 581.517C419.783 581.517 417.666 611.395 415.078 617.041C412.49 622.687 411.079 634.921 411.079 634.921C411.079 634.921 415.313 644.801 413.337 649.742C411.361 654.682 413.337 676.326 413.337 676.326C413.337 676.326 411.784 708.085 407.55 718.437C403.315 728.788 408.256 736.081 411.37 741.021C414.476 745.962 413.902 751.608 409.667 754.196C405.433 756.783 406.609 758.195 409.902 762.194C413.196 766.194 409.902 778.192 409.902 778.192C409.902 778.192 396.493 788.778 390.611 784.073C384.73 779.368 365.909 773.251 363.557 771.605C361.204 769.958 361.91 765.253 365.439 761.489C368.968 757.724 367.086 757.254 367.086 757.254C357.675 754.431 363.557 745.726 363.557 745.726C363.557 745.726 373.202 735.375 369.203 729.729C365.204 724.083 365.204 707.615 367.791 704.321C370.379 701.028 367.321 691.617 367.321 691.617L361.703 645.742C361.703 645.742 361.44 636.097 364.498 634.92C367.556 633.744 369.909 630.921 367.556 625.981C365.204 621.04 370.144 609.983 370.144 609.983C372.967 606.219 368.027 589.986 362.145 581.047C356.264 572.107 359.793 545.993 359.793 545.993C359.793 545.993 355.323 539.642 355.323 536.583C355.279 534.619 354.797 532.691 353.911 530.937C351.879 527.709 352.274 520.407 353.158 514.008C354.015 507.816 355.323 502.471 355.323 502.471L503.535 506.235Z" fill="#5F5D7E"/>
<path d="M457.424 239.689L411.079 250.511C411.079 250.511 388.259 231.22 393.905 220.869C395.843 217.312 396.7 211.242 396.991 204.824C397.217 199.809 397.095 194.567 396.878 190.135C396.549 183.727 396.022 178.993 396.022 178.993C396.022 178.993 443.544 152.174 441.897 178.993C441.562 183.459 441.666 187.948 442.208 192.393C442.544 195.557 443.466 198.63 444.927 201.456C447.468 205.982 450.602 206.048 450.602 206.048L457.424 239.689Z" fill="#FDC2CC"/>
<path opacity="0.1" d="M442.208 192.393C435.51 197.198 427.381 199.59 419.149 199.18C410.916 198.77 403.066 195.581 396.878 190.135C396.549 183.727 396.022 178.993 396.022 178.993C396.022 178.993 443.544 152.174 441.897 178.993C441.563 183.459 441.667 187.948 442.208 192.393Z" fill="black"/>
<path d="M420.96 198.284C441.098 198.284 457.424 181.958 457.424 161.819C457.424 141.681 441.098 125.355 420.96 125.355C400.821 125.355 384.495 141.681 384.495 161.819C384.495 181.958 400.821 198.284 420.96 198.284Z" fill="#FDC2CC"/>
<path opacity="0.1" d="M457.424 239.689L411.079 250.511C411.079 250.511 388.259 231.22 393.905 220.869C395.843 217.312 396.7 211.242 396.991 204.824C398.015 210.405 401.011 215.432 405.432 218.987C416.019 226.045 414.372 234.749 414.372 234.749L433.428 234.043C432.252 226.28 439.309 222.045 441.662 221.104C444.015 220.163 442.838 215.929 442.838 215.929L444.927 201.456C447.468 205.982 450.602 206.048 450.602 206.048L457.424 239.689Z" fill="black"/>
<path opacity="0.1" d="M503.535 506.235C503.535 506.235 502.791 509.698 501.728 514.723C496.609 514.45 489.843 514.253 486.831 514.94C481.656 516.116 460.953 516.587 460.953 516.587L409.667 518.403V516.822C403.768 516.869 397.876 517.262 392.023 517.998C383.318 519.174 369.673 517.528 360.969 516.116C358.29 515.732 355.667 515.024 353.158 514.008C354.015 507.816 355.323 502.471 355.323 502.471L503.535 506.235Z" fill="black"/>
<path d="M499.535 356.847C498.792 361.242 499.337 368.525 500.278 375.715C501.699 386.621 504.005 397.311 504.005 397.311C504.005 397.311 513.65 458.478 508.24 466.477C502.829 474.475 508.24 513.293 508.24 513.293C508.24 513.293 492.007 511.881 486.831 513.058C481.656 514.234 460.953 514.704 460.953 514.704L409.667 516.521V514.94C403.768 514.987 397.876 515.38 392.023 516.116C383.318 517.292 369.674 515.645 360.969 514.234C352.264 512.822 348.736 509.999 349.677 508.588C350.618 507.176 348.736 468.594 348.736 468.594L348.5 437.305C348.5 437.305 348.265 415.191 353.676 410.25C355.887 408.237 357.704 400.793 359.087 392.7C361.072 380.984 362.145 367.904 362.145 367.904L326.386 272.155L325.68 270.273C325.68 270.273 336.032 254.275 334.385 246.512C332.738 238.748 344.03 231.926 344.03 231.926C344.03 231.926 365.439 222.516 366.85 219.693C368.262 216.87 383.083 216.164 383.083 216.164C383.083 216.164 391.552 211.694 393.011 208.796C393.366 207.986 393.909 207.273 394.594 206.715C395.28 206.156 396.089 205.77 396.954 205.587C397.951 211.236 400.963 216.332 405.432 219.928C416.019 226.986 414.372 235.69 414.372 235.69L433.428 234.984C432.252 227.221 439.309 222.986 441.662 222.045C444.015 221.104 442.838 216.87 442.838 216.87L445.04 201.634C446.056 199.103 453.19 208.796 453.19 208.796C453.19 208.796 471.304 214.988 472.481 215.458C473.657 215.929 488.949 220.634 488.949 220.634C488.949 220.634 507.769 232.867 507.769 235.925C507.769 238.984 518.12 255.452 518.12 255.452C518.12 255.452 517.998 256.11 517.772 257.315C515.382 270.282 501.257 346.731 499.535 356.847Z" fill="#F9A826"/>
<path d="M424.253 318.736C424.253 318.736 383.554 307.914 379.554 305.326C375.555 302.738 352.029 317.795 380.731 338.262C380.731 338.262 415.827 345.555 425.215 338.262C434.604 330.969 424.253 318.736 424.253 318.736Z" fill="#FDC2CC"/>
<path opacity="0.1" d="M512.239 254.275L517.179 254.511L531.765 293.563C531.765 293.563 540.47 314.031 542.117 317.324C543.763 320.618 543.058 334.263 542.117 338.262C541.176 342.261 535.059 359.905 534.824 364.375C534.588 368.845 523.531 373.315 512.239 372.609C500.947 371.904 474.598 375.432 474.598 375.432C474.598 375.432 446.458 372.491 429.194 381.314C429.194 381.314 418.136 358.494 419.313 315.913C419.313 315.913 438.839 314.736 443.779 316.618C448.72 318.5 472.716 323.911 475.774 321.088C478.833 318.265 492.713 326.264 492.713 326.264C493.419 324.713 493.784 323.028 493.784 321.323C493.784 319.619 493.419 317.934 492.713 316.383C490.36 310.737 486.361 293.093 491.536 287.447C496.712 281.8 512.239 254.275 512.239 254.275Z" fill="black"/>
<path opacity="0.1" d="M500.279 375.715C488.6 376.505 475.539 378.256 475.539 378.256C475.539 378.256 447.402 375.31 430.135 384.137C430.135 384.137 419.077 361.317 420.254 318.736C420.254 318.736 439.78 317.559 444.72 319.441C449.661 321.323 473.657 326.734 476.715 323.911C479.774 321.088 493.654 329.087 493.654 329.087C494.36 327.536 494.725 325.851 494.725 324.147C494.725 322.442 494.36 320.757 493.654 319.206C491.301 313.56 487.302 295.916 492.477 290.27C497.653 284.623 513.18 257.098 513.18 257.098L517.772 257.315C515.382 270.282 501.257 346.731 499.535 356.847C498.792 361.242 499.338 368.525 500.279 375.715Z" fill="black"/>
<path d="M513.18 255.216L518.12 255.452L532.706 294.504C532.706 294.504 541.411 314.972 543.058 318.265C544.704 321.559 543.999 335.204 543.058 339.203C542.117 343.202 536 360.847 535.765 365.316C535.529 369.786 524.472 374.256 513.18 373.55C501.888 372.845 475.539 376.374 475.539 376.374C475.539 376.374 447.399 373.432 430.135 382.255C430.135 382.255 419.077 359.435 420.254 316.854C420.254 316.854 439.78 315.677 444.72 317.559C449.661 319.441 473.657 324.852 476.715 322.029C479.774 319.206 493.654 327.205 493.654 327.205C494.36 325.654 494.725 323.969 494.725 322.264C494.725 320.56 494.36 318.875 493.654 317.324C491.301 311.678 487.302 294.034 492.477 288.388C497.653 282.741 513.18 255.216 513.18 255.216Z" fill="#F9A826"/>
<path d="M463.477 341.629L469.347 345.264L502.059 292.432L496.189 288.798L463.477 341.629Z" fill="#DFE6F5"/>
<path d="M518.833 285.278C524.614 275.941 523.992 265.084 517.443 261.03C510.894 256.975 500.899 261.257 495.118 270.593C489.336 279.93 489.959 290.787 496.507 294.842C503.056 298.897 513.052 294.615 518.833 285.278Z" fill="#DFE6F5"/>
<path opacity="0.1" d="M515.487 283.206C519.637 276.504 519.19 268.711 514.489 265.8C509.788 262.89 502.614 265.963 498.464 272.665C494.314 279.367 494.761 287.16 499.461 290.071C504.162 292.981 511.337 289.908 515.487 283.206Z" fill="black"/>
<path d="M446.757 368.632L452.627 372.266L472.982 339.394L467.112 335.759L446.757 368.632Z" fill="#53526B"/>
<path d="M412.255 370.963L426.606 366.963C426.606 366.963 497.418 368.845 473.657 339.674C473.657 339.674 461.188 327.675 435.075 337.321C408.961 346.966 401.668 348.143 401.668 348.143L412.255 370.963Z" fill="#FDC2CC"/>
<path opacity="0.1" d="M401.668 247.923C403.228 247.923 404.492 246.66 404.492 245.1C404.492 243.541 403.228 242.277 401.668 242.277C400.109 242.277 398.845 243.541 398.845 245.1C398.845 246.66 400.109 247.923 401.668 247.923Z" fill="black"/>
<path opacity="0.1" d="M450.131 246.277C451.69 246.277 452.954 245.013 452.954 243.454C452.954 241.894 451.69 240.631 450.131 240.631C448.572 240.631 447.308 241.894 447.308 243.454C447.308 245.013 448.572 246.277 450.131 246.277Z" fill="black"/>
<path d="M401.668 246.982C403.228 246.982 404.492 245.718 404.492 244.159C404.492 242.6 403.228 241.336 401.668 241.336C400.109 241.336 398.845 242.6 398.845 244.159C398.845 245.718 400.109 246.982 401.668 246.982Z" fill="white"/>
<path opacity="0.1" d="M405.668 286.976C407.227 286.976 408.491 285.712 408.491 284.153C408.491 282.594 407.227 281.33 405.668 281.33C404.109 281.33 402.845 282.594 402.845 284.153C402.845 285.712 404.109 286.976 405.668 286.976Z" fill="black"/>
<path opacity="0.1" d="M451.543 284.153C453.102 284.153 454.366 282.889 454.366 281.33C454.366 279.771 453.102 278.507 451.543 278.507C449.984 278.507 448.72 279.771 448.72 281.33C448.72 282.889 449.984 284.153 451.543 284.153Z" fill="black"/>
<path d="M405.668 286.035C407.227 286.035 408.491 284.771 408.491 283.212C408.491 281.653 407.227 280.389 405.668 280.389C404.109 280.389 402.845 281.653 402.845 283.212C402.845 284.771 404.109 286.035 405.668 286.035Z" fill="white"/>
<path opacity="0.1" d="M450.366 420.383C451.926 420.383 453.19 419.119 453.19 417.559C453.19 416 451.926 414.736 450.366 414.736C448.807 414.736 447.543 416 447.543 417.559C447.543 419.119 448.807 420.383 450.366 420.383Z" fill="black"/>
<path opacity="0.1" d="M413.212 420.383C414.771 420.383 416.035 419.119 416.035 417.559C416.035 416 414.771 414.736 413.212 414.736C411.653 414.736 410.389 416 410.389 417.559C410.389 419.119 411.653 420.383 413.212 420.383Z" fill="black"/>
<path d="M450.366 419.442C451.926 419.442 453.19 418.178 453.19 416.618C453.19 415.059 451.926 413.795 450.366 413.795C448.807 413.795 447.543 415.059 447.543 416.618C447.543 418.178 448.807 419.442 450.366 419.442Z" fill="white"/>
<path opacity="0.1" d="M416.035 467.653C417.594 467.653 418.858 466.389 418.858 464.83C418.858 463.271 417.594 462.007 416.035 462.007C414.476 462.007 413.212 463.271 413.212 464.83C413.212 466.389 414.476 467.653 416.035 467.653Z" fill="black"/>
<path opacity="0.1" d="M451.543 464.83C453.102 464.83 454.366 463.566 454.366 462.007C454.366 460.448 453.102 459.184 451.543 459.184C449.984 459.184 448.72 460.448 448.72 462.007C448.72 463.566 449.984 464.83 451.543 464.83Z" fill="black"/>
<path d="M416.035 466.712C417.594 466.712 418.858 465.448 418.858 463.889C418.858 462.33 417.594 461.066 416.035 461.066C414.476 461.066 413.212 462.33 413.212 463.889C413.212 465.448 414.476 466.712 416.035 466.712Z" fill="white"/>
<path d="M413.212 419.442C414.771 419.442 416.035 418.178 416.035 416.618C416.035 415.059 414.771 413.795 413.212 413.795C411.653 413.795 410.389 415.059 410.389 416.618C410.389 418.178 411.653 419.442 413.212 419.442Z" fill="white"/>
<path d="M451.543 463.889C453.102 463.889 454.366 462.625 454.366 461.066C454.366 459.507 453.102 458.243 451.543 458.243C449.984 458.243 448.72 459.507 448.72 461.066C448.72 462.625 449.984 463.889 451.543 463.889Z" fill="white"/>
<path d="M450.131 245.336C451.69 245.336 452.954 244.072 452.954 242.513C452.954 240.953 451.69 239.689 450.131 239.689C448.572 239.689 447.308 240.953 447.308 242.513C447.308 244.072 448.572 245.336 450.131 245.336Z" fill="white"/>
<path d="M451.543 283.212C453.102 283.212 454.366 281.948 454.366 280.389C454.366 278.83 453.102 277.566 451.543 277.566C449.984 277.566 448.72 278.83 448.72 280.389C448.72 281.948 449.984 283.212 451.543 283.212Z" fill="white"/>
<path opacity="0.1" d="M455.777 379.432C455.777 379.432 456.248 443.892 457.659 455.42C457.659 455.42 458.172 382.471 455.777 379.432Z" fill="black"/>
<path opacity="0.1" d="M467.776 409.309C466.806 409.309 487.067 484.827 488.008 490.238C488.948 495.649 473.422 409.309 467.776 409.309Z" fill="black"/>
<path opacity="0.1" d="M483.773 397.076C483.773 397.782 495.065 438.011 500.712 440.128C506.358 442.245 483.773 397.076 483.773 397.076Z" fill="black"/>
<path opacity="0.1" d="M528.236 318.736C528.236 318.736 504.24 319.805 503.534 323.27C502.829 326.734 528.236 318.736 528.236 318.736Z" fill="black"/>
<path opacity="0.1" d="M485.89 625.51C485.89 625.51 468.716 632.803 471.304 633.274C473.892 633.744 485.89 625.51 485.89 625.51Z" fill="black"/>
<path opacity="0.1" d="M450.367 614.689C449.698 613.184 461.894 620.805 461.894 621.746C461.894 622.687 451.308 616.806 450.367 614.689Z" fill="black"/>
<path opacity="0.1" d="M466.364 639.39C466.364 639.39 479.774 638.714 480.715 643.875C481.656 649.036 466.364 639.39 466.364 639.39Z" fill="black"/>
<path opacity="0.1" d="M369.909 639.361C369.909 639.361 384.495 636.509 385.671 639.361C386.847 642.213 369.909 639.361 369.909 639.361Z" fill="black"/>
<path opacity="0.1" d="M375.32 728.082C375.32 728.082 376.276 740.08 372.739 742.903C369.203 745.726 375.32 728.082 375.32 728.082Z" fill="black"/>
<path opacity="0.1" d="M373.538 753.49C378.143 753.96 402.374 749.726 402.139 753.49C401.904 757.254 373.538 753.49 373.538 753.49Z" fill="black"/>
<path opacity="0.1" d="M484.714 738.904C484.714 738.904 476.45 737.634 478.464 743.209L484.714 738.904Z" fill="black"/>
<path opacity="0.1" d="M331.091 269.332H326.622L319.799 294.269C319.799 294.269 317.447 302.973 315.094 305.091C312.741 307.208 317.211 326.499 317.211 326.499C317.211 326.499 314.623 340.144 312.506 343.673C310.389 347.202 315.8 355.906 315.8 355.906L326.622 381.314L355.323 388.842C355.323 388.842 405.903 399.899 408.256 401.546C410.608 403.193 412.725 400.84 414.372 385.549C416.019 370.257 420.489 340.615 424.018 339.203C424.018 339.203 395.787 342.261 393.434 341.791C391.082 341.32 379.79 342.026 379.79 342.026C379.79 342.026 364.968 341.085 362.616 342.497C360.263 343.908 365.674 335.664 365.674 335.664C366.665 331.889 366.665 327.922 365.674 324.147C364.027 317.795 363.086 245.806 331.091 269.332Z" fill="black"/>
<path opacity="0.1" d="M423.077 342.026C419.548 343.438 415.078 373.08 413.431 388.372C411.784 403.663 409.667 406.016 407.314 404.369C405.404 403.033 371.687 395.486 359.087 392.7C361.072 380.985 362.145 367.904 362.145 367.904L326.386 272.155H330.15C362.145 248.629 363.086 320.618 364.733 326.97C365.724 330.745 365.724 334.712 364.733 338.488C364.733 338.488 359.322 346.731 361.675 345.32C364.027 343.908 378.848 344.849 378.848 344.849C378.848 344.849 390.141 344.143 392.493 344.614C394.846 345.084 423.077 342.026 423.077 342.026Z" fill="black"/>
<path d="M330.15 270.273H325.68L318.858 295.21C318.858 295.21 316.505 303.915 314.153 306.032C311.8 308.149 316.27 327.44 316.27 327.44C316.27 327.44 313.682 341.085 311.565 344.614C309.448 348.143 314.859 356.847 314.859 356.847L325.68 382.255L354.382 389.783C354.382 389.783 404.962 400.84 407.314 402.487C409.667 404.134 411.784 401.781 413.431 386.49C415.078 371.198 419.548 341.556 423.077 340.144C423.077 340.144 394.846 343.203 392.493 342.732C390.141 342.261 378.848 342.967 378.848 342.967C378.848 342.967 364.027 342.026 361.675 343.438C359.322 344.849 364.733 336.605 364.733 336.605C365.724 332.83 365.724 328.863 364.733 325.088C363.086 318.736 362.145 246.747 330.15 270.273Z" fill="#F9A826"/>
<path opacity="0.1" d="M345.442 355.436C345.442 355.436 332.503 379.902 330.15 377.079C327.798 374.256 345.442 355.436 345.442 355.436Z" fill="black"/>
<path opacity="0.1" d="M332.032 341.503C332.032 341.503 320.034 351.436 325.68 354.024C331.326 356.612 332.032 341.503 332.032 341.503Z" fill="black"/>
<path opacity="0.1" d="M343.325 329.322C344.266 329.558 360.734 332.828 360.969 334.251C361.204 335.674 343.325 329.322 343.325 329.322Z" fill="black"/>
<path opacity="0.1" d="M457.528 156.983C457.016 157.163 456.58 157.509 456.288 157.966C455.996 158.423 455.866 158.965 455.919 159.505C454.959 160.352 453.613 159.354 452.832 158.272C452.042 157.199 451.148 155.872 449.953 156.023C449.385 156.204 448.834 156.434 448.306 156.71C446.424 157.312 444.833 155.101 443.779 153.162C441.945 149.765 440.109 146.371 438.274 142.98C434.595 145.116 430.247 142.877 426.596 140.665C422.945 138.454 418.598 136.205 414.909 138.341C409.498 141.465 409.3 151.882 403.692 154.451C401.885 155.279 399.786 155.1 398.111 156.239C396.455 157.368 395.561 159.542 394.818 161.622C394.543 162.806 393.896 163.871 392.973 164.661C392.387 164.968 391.734 165.126 391.072 165.123C389.41 165.405 387.7 165.165 386.179 164.436C385.382 163.935 384.78 163.177 384.472 162.287C384.164 161.397 384.168 160.429 384.485 159.542C384.53 159.448 384.58 159.357 384.636 159.269C385.239 158.541 385.78 157.763 386.254 156.945C386.819 155.449 386.01 153.708 386.189 152.089C386.48 149.323 389.407 147.864 389.906 145.144C390.113 144.081 389.896 142.943 390.094 141.87C390.121 141.729 390.159 141.591 390.207 141.456L388.485 142.641C390.414 140.392 391.383 137.268 392.795 134.539C394.363 131.551 396.52 128.912 399.137 126.782C401.754 124.652 404.776 123.075 408.02 122.146C414.156 120.358 420.64 120.847 426.832 122.362C432.72 123.829 438.36 126.153 443.572 129.26C445.434 130.259 447.089 131.603 448.447 133.222C449.585 134.9 450.553 136.687 451.336 138.557C453.161 142.34 458.149 145.841 454.178 146.368C450.875 146.81 453.886 149.125 455.618 150.687C456.008 150.993 456.345 151.362 456.615 151.779C456.903 152.374 457.034 153.032 456.998 153.692C456.962 154.352 456.759 154.992 456.408 155.552C455.74 156.399 458.45 156.569 457.528 156.983Z" fill="black"/>
<path d="M457.528 156.042C457.016 156.222 456.58 156.568 456.288 157.025C455.996 157.482 455.866 158.024 455.919 158.564C454.959 159.41 453.613 158.413 452.832 157.331C452.042 156.258 451.148 154.931 449.953 155.082C449.385 155.263 448.834 155.493 448.306 155.769C446.424 156.371 444.833 154.16 443.779 152.221C441.944 148.824 440.109 145.43 438.274 142.039C434.595 144.175 430.247 141.936 426.596 139.724C422.945 137.513 418.598 135.264 414.909 137.4C409.498 140.524 409.3 150.941 403.692 153.51C401.885 154.338 399.786 154.16 398.111 155.298C396.455 156.427 395.561 158.601 394.818 160.681C394.543 161.865 393.896 162.93 392.973 163.72C392.387 164.027 391.734 164.185 391.072 164.182C389.41 164.464 387.7 164.224 386.179 163.495C385.382 162.994 384.78 162.236 384.472 161.346C384.164 160.456 384.168 159.488 384.485 158.601C384.53 158.507 384.58 158.416 384.636 158.328C385.239 157.6 385.78 156.822 386.254 156.004C386.819 154.508 386.01 152.767 386.189 151.148C386.48 148.382 389.407 146.923 389.906 144.203C390.113 143.14 389.896 142.001 390.094 140.929C390.121 140.788 390.159 140.65 390.207 140.515L388.485 141.7C390.414 139.451 391.383 136.327 392.795 133.598C394.363 130.61 396.52 127.971 399.137 125.841C401.754 123.711 404.776 122.134 408.02 121.205C414.156 119.417 420.64 119.906 426.832 121.421C432.72 122.888 438.36 125.212 443.572 128.319C445.434 129.317 447.089 130.662 448.447 132.281C449.585 133.959 450.552 135.746 451.336 137.616C453.161 141.399 458.149 144.9 454.178 145.427C450.875 145.869 453.886 148.184 455.618 149.746C456.008 150.052 456.345 150.421 456.615 150.838C456.902 151.433 457.034 152.091 456.998 152.751C456.962 153.411 456.759 154.051 456.408 154.611C455.74 155.458 458.45 155.628 457.528 156.042Z" fill="#865A61"/>
<path opacity="0.1" d="M455.618 149.746L455.241 153.708C455.241 153.708 415.756 103.664 385.041 160.173C385.041 160.173 384.89 159.486 384.636 158.328C385.239 157.6 385.78 156.822 386.254 156.004C386.819 154.508 386.01 152.767 386.189 151.148C386.48 148.382 389.407 146.923 389.906 144.203C390.113 143.14 389.896 142.001 390.094 140.929C390.121 140.788 390.159 140.65 390.207 140.515L388.485 141.7C390.414 139.451 391.383 136.327 392.795 133.598C394.363 130.61 396.52 127.971 399.137 125.841C401.754 123.711 404.776 122.134 408.02 121.205C414.156 119.417 420.639 119.906 426.831 121.421C432.72 122.888 438.36 125.212 443.572 128.319C445.434 129.317 447.089 130.662 448.447 132.281C449.585 133.959 450.553 135.746 451.336 137.616C453.161 141.399 458.149 144.9 454.178 145.427C450.875 145.869 453.886 148.184 455.618 149.746Z" fill="black"/>
<g opacity="0.1">
<path opacity="0.1" d="M456.591 155.529C456.397 155.748 456.255 156.009 456.177 156.291C456.1 156.574 456.088 156.87 456.144 157.158C455.184 158.005 453.838 157.007 453.057 155.925C452.267 154.852 451.373 153.525 450.178 153.676C449.61 153.857 449.059 154.087 448.531 154.363C446.649 154.965 445.058 152.754 444.004 150.815C442.169 147.418 440.334 144.024 438.499 140.633C434.82 142.77 430.472 140.53 426.821 138.318C423.17 136.107 418.822 133.858 415.134 135.994C409.723 139.118 409.525 149.536 403.917 152.105C402.11 152.933 400.011 152.754 398.336 153.892C396.68 155.022 395.786 157.195 395.043 159.275C394.768 160.459 394.121 161.524 393.198 162.315C392.612 162.621 391.959 162.78 391.297 162.776C389.634 163.058 387.925 162.818 386.404 162.089C385.493 161.484 384.839 160.562 384.57 159.502C384.383 160.345 384.459 161.225 384.787 162.024C385.115 162.823 385.679 163.502 386.404 163.971C387.925 164.7 389.634 164.94 391.297 164.658C391.959 164.662 392.612 164.503 393.198 164.197C394.121 163.406 394.768 162.341 395.043 161.157C395.786 159.077 396.68 156.904 398.336 155.775C400.011 154.636 402.11 154.815 403.917 153.987C409.525 151.418 409.723 141 415.134 137.876C418.822 135.74 423.17 137.989 426.821 140.2C430.472 142.412 434.82 144.652 438.499 142.515C440.334 145.903 442.169 149.297 444.004 152.697C445.058 154.636 446.649 156.847 448.531 156.245C449.059 155.969 449.61 155.739 450.178 155.558C451.373 155.408 452.267 156.734 453.057 157.807C453.838 158.889 455.184 159.887 456.144 159.04C456.091 158.5 456.221 157.958 456.513 157.501C456.805 157.044 457.241 156.698 457.753 156.518C458.486 156.189 456.926 156.013 456.591 155.529Z" fill="black"/>
<path opacity="0.1" d="M453.514 146.127C453.799 146.013 454.098 145.938 454.403 145.903C456.154 145.671 456.161 144.859 455.468 143.702C455.138 143.879 454.776 143.988 454.403 144.021C452.513 144.274 452.693 145.14 453.514 146.127Z" fill="black"/>
<path opacity="0.1" d="M457.119 154.01C457.25 153.403 457.247 152.775 457.109 152.17C457.026 152.545 456.863 152.898 456.633 153.206C456.338 153.579 456.701 153.821 457.119 154.01Z" fill="black"/>
<path opacity="0.1" d="M386.468 151.299C386.448 151.407 386.425 151.513 386.414 151.625C386.375 152.472 386.437 153.321 386.597 154.154C386.708 153.202 386.665 152.238 386.468 151.299Z" fill="black"/>
<path opacity="0.1" d="M390.288 139.818C389.845 140.657 389.316 141.447 388.71 142.177L390.228 141.131C390.221 140.692 390.241 140.254 390.288 139.818Z" fill="black"/>
</g>
<path d="M385.038 159.232C385.038 159.232 379.36 133.849 381.167 129.778C381.167 129.778 376.263 119.72 376.263 117.326C376.025 113.33 374.782 109.459 372.65 106.071C370.069 102 367.23 83.0825 382.716 78.5327C398.201 73.9829 410.074 69.9121 411.88 66.7991C413.687 63.6861 440.271 65.6018 447.498 77.5749C454.724 89.548 459.37 87.1534 459.37 87.1534C459.37 87.1534 470.468 94.0978 470.468 100.324C470.468 106.55 467.113 109.663 470.468 111.1C473.823 112.536 471.242 138.398 456.531 139.117L455.241 152.766C455.241 152.766 415.752 102.718 385.038 159.232Z" fill="#F9A826"/>
<path opacity="0.1" d="M386.73 83.479C386.73 83.479 383.318 103.476 389.553 110.181L386.73 83.479Z" fill="black"/>
<path opacity="0.1" d="M402.727 78.8915C402.727 78.8915 394.022 100.3 396.14 104.417L402.727 78.8915Z" fill="black"/>
<path opacity="0.1" d="M410.255 72.0691C410.255 72.0691 404.374 99.947 407.197 102.182L410.255 72.0691Z" fill="black"/>
<path opacity="0.1" d="M420.371 79.5973C420.371 79.5973 413.078 97.4768 416.019 99.947L420.371 79.5973Z" fill="black"/>
<path opacity="0.1" d="M434.134 81.7146C434.134 81.7146 425.547 96.3006 427.311 98.8884L434.134 81.7146Z" fill="black"/>
<path opacity="0.1" d="M451.778 95.9477C451.778 95.9477 442.603 98.4179 444.485 101.359L451.778 95.9477Z" fill="black"/>
<path opacity="0.1" d="M460.483 111.122C460.483 111.122 452.249 115.121 453.778 117.238L460.483 111.122Z" fill="black"/>
<path opacity="0.1" d="M381.167 129.778C381.167 129.778 433.759 108.415 456.531 139.117C456.531 139.117 428.89 115.616 381.167 129.778Z" fill="black"/>
<path d="M362.162 305.306L369.49 297.893L390.209 318.373L382.881 325.787L363.826 306.952L362.162 305.306Z" fill="#53526B"/>
<path d="M314.087 257.782C314.087 257.782 346.16 260.512 376.012 294.112L363.57 306.698L314.087 257.782Z" fill="#DFE6F5"/>
<path d="M410.29 317.86C410.29 317.86 379.462 306.622 376.433 303.935C373.404 301.248 355.584 316.883 377.324 338.137C377.324 338.137 403.908 345.711 411.019 338.137C418.131 330.564 410.29 317.86 410.29 317.86Z" fill="#FDC2CC"/>
<path d="M980.925 532.647H974.656V673.683H980.925V532.647Z" fill="#535461"/>
<path d="M1020.29 673.255L1019.9 679.607L1019.34 688.57L1019.11 692.31L1018.56 701.285L1018.32 705.025L1017.77 713.988L1011.45 815.963C1011.17 820.35 1009.24 824.469 1006.04 827.479C1002.83 830.49 998.604 832.166 994.208 832.166H961.372C956.978 832.166 952.749 830.489 949.548 827.479C946.346 824.468 944.414 820.349 944.145 815.963L937.814 713.988L937.26 705.025L937.03 701.285L936.466 692.31L936.236 688.57L935.683 679.607L935.286 673.255C935.211 672.036 935.386 670.814 935.801 669.666C936.216 668.517 936.862 667.465 937.699 666.576C938.536 665.686 939.546 664.977 940.667 664.492C941.788 664.008 942.997 663.758 944.218 663.758H1011.37C1012.59 663.758 1013.8 664.008 1014.92 664.493C1016.04 664.978 1017.05 665.687 1017.89 666.577C1018.72 667.467 1019.37 668.518 1019.78 669.667C1020.2 670.815 1020.37 672.036 1020.29 673.255Z" fill="#65617D"/>
<path d="M1019.9 679.607L1019.34 688.57H936.236L935.682 679.607H1019.9Z" fill="#9D9CB5"/>
<path d="M1019.11 692.311L1018.56 701.285H937.031L936.466 692.311H1019.11Z" fill="#9D9CB5"/>
<path d="M1018.32 705.025L1017.77 713.988H937.814L937.261 705.025H1018.32Z" fill="#9D9CB5"/>
<path d="M926.116 585.511C962.6 611.902 977.79 653.184 977.79 653.184C977.79 653.184 933.828 651.676 897.344 625.285C860.86 598.893 845.67 557.612 845.67 557.612C845.67 557.612 889.632 559.119 926.116 585.511Z" fill="#F9A826"/>
<path d="M845.67 557.612C845.67 557.612 891.3 582.941 905.938 603.91C920.576 624.879 977.79 653.184 977.79 653.184" stroke="#535461" stroke-width="2" stroke-miterlimit="10"/>
<path d="M949.664 532.335C969.522 546.7 977.79 569.169 977.79 569.169C977.79 569.169 953.862 568.349 934.004 553.984C914.146 539.62 905.878 517.15 905.878 517.15C905.878 517.15 929.806 517.971 949.664 532.335Z" fill="#F9A826"/>
<path d="M905.878 517.15C905.878 517.15 930.714 530.937 938.681 542.35C946.649 553.763 977.79 569.169 977.79 569.169" stroke="#535461" stroke-width="2" stroke-miterlimit="10"/>
<path d="M1006.65 568.026C983.838 593.095 979.013 625.851 979.013 625.851C979.013 625.851 1011.17 617.961 1033.98 592.891C1056.79 567.822 1061.61 535.066 1061.61 535.066C1061.61 535.066 1029.46 542.956 1006.65 568.026Z" fill="#F9A826"/>
<path d="M1061.61 535.066C1061.61 535.066 1031.9 560.764 1024.35 578.469C1016.8 596.175 979.013 625.851 979.013 625.851" stroke="#535461" stroke-width="2" stroke-miterlimit="10"/>
</g>
<defs>
<linearGradient id="paint0_linear" x1="427.56" y1="831.961" x2="427.56" y2="62.1198" gradientUnits="userSpaceOnUse">
<stop stop-color="#808080" stop-opacity="0.25"/>
<stop offset="0.53514" stop-color="#808080" stop-opacity="0.12"/>
<stop offset="1" stop-color="#808080" stop-opacity="0.1"/>
</linearGradient>
<clipPath id="clip0">
<rect width="1078.12" height="839.088" fill="white"/>
</clipPath>
</defs>
</svg>
